<svg xmlns="http://www.w3.org/2000/svg" xmlns:xlink="http://www.w3.org/1999/xlink" viewBox="0 0 61 61"><defs><style>.cls-1{fill:url(#linear-gradient);}.cls-2{fill:none;}.cls-2,.cls-3{stroke:#f8fbff;stroke-miterlimit:10;}.cls-3{fill:#23a8e0;}.cls-4{fill:#f8fbff;}.cls-5{fill:#fff;}</style><linearGradient id="linear-gradient" x1="30.49" y1="31.11" x2="29.78" y2="92.1" gradientUnits="userSpaceOnUse"><stop offset="0" stop-color="#0073bb"/><stop offset="0.18" stop-color="#026eb5"/><stop offset="0.42" stop-color="#0861a3"/><stop offset="0.7" stop-color="#124c86"/><stop offset="1" stop-color="#1f2f5e"/></linearGradient></defs><g id="Layer_2" data-name="Layer 2"><g id="Layer_1-2" data-name="Layer 1"><rect class="cls-1" width="61" height="61" rx="15.82"/><path class="cls-2" d="M28.88,46.15H15.41a3,3,0,0,1-3-3V33.54"/><path class="cls-2" d="M50.53,33.54v9.62a3,3,0,0,1-3,3H34.32"/><path class="cls-2" d="M34.08,15.68H47.53a3,3,0,0,1,3,3V28.3"/><path class="cls-2" d="M12.41,28.3V18.68a3,3,0,0,1,3-3H28.88"/><circle class="cls-3" cx="12.41" cy="30.92" r="2.62"/><circle class="cls-3" cx="50.53" cy="30.92" r="2.62"/><circle class="cls-3" cx="31.49" cy="15.68" r="2.62"/><circle class="cls-3" cx="31.49" cy="46.15" r="2.62"/><path class="cls-4" d="M28.34,33.33A1.72,1.72,0,0,0,26,34a16,16,0,0,0-1.16,3c-.07.19-.23.39,0,.59s.41,0,.61,0a17.28,17.28,0,0,0,2.94-1.16A1.61,1.61,0,0,0,29.28,35,1.84,1.84,0,0,0,28.34,33.33Z"/><path class="cls-5" d="M37.85,24.17a7.53,7.53,0,0,0-1.71.19,10.75,10.75,0,0,0-5.61,3.16.38.38,0,0,1-.31.14,6.08,6.08,0,0,0-1.47.22,7.19,7.19,0,0,0-3.17,1.78c-.1.1-.21.2-.16.37s.21.2.35.22l.14,0,1.9.27a.74.74,0,0,1-.09.12c-.32.38-.32.41,0,.76l3.11,3.11c.48.48.48.48,1,.11.09.66.18,1.3.28,1.94,0,.16,0,.35.21.42s.33-.08.45-.21a7.09,7.09,0,0,0,1.94-4.55.42.42,0,0,1,.15-.34,10.47,10.47,0,0,0,2.14-2.81,9.73,9.73,0,0,0,1.2-4.51C38.27,24.25,38.19,24.17,37.85,24.17Zm-3.07,4.58a1,1,0,1,1,1-1A1,1,0,0,1,34.78,28.75Z"/></g></g></svg>