<svg xmlns="http://www.w3.org/2000/svg" xmlns:xlink="http://www.w3.org/1999/xlink" viewBox="0 0 61 61"><defs><style>.cls-1{fill:url(#linear-gradient);}.cls-2{fill:#fff;}.cls-3{fill:#23a8e0;}.cls-4,.cls-5{fill:none;stroke-miterlimit:10;stroke-width:1.6px;}.cls-4{stroke:#fff;}.cls-5{stroke:#f8fbff;stroke-linecap:round;}</style><linearGradient id="linear-gradient" x1="30.49" y1="31.11" x2="29.78" y2="92.1" gradientUnits="userSpaceOnUse"><stop offset="0" stop-color="#0073bb"/><stop offset="0.18" stop-color="#026eb5"/><stop offset="0.42" stop-color="#0861a3"/><stop offset="0.7" stop-color="#124c86"/><stop offset="1" stop-color="#1f2f5e"/></linearGradient></defs><g id="Layer_2" data-name="Layer 2"><g id="Layer_1-2" data-name="Layer 1"><rect class="cls-1" width="61" height="61" rx="15.82"/><path class="cls-2" d="M16.33,36.74a4,4,0,0,1,3.94-4,4,4,0,0,1,4.07,4,4.1,4.1,0,0,1-4,4A4,4,0,0,1,16.33,36.74Z"/><path class="cls-3" d="M44.78,36.68a4,4,0,0,1-3.91,4.06,4.09,4.09,0,0,1-4.1-4.05,4,4,0,0,1,4-4A4,4,0,0,1,44.78,36.68Z"/><path class="cls-4" d="M24.77,25.2H43.15a3.34,3.34,0,0,0,3.34-3.34V17.15a3.35,3.35,0,0,0-3.34-3.34H19.72a3.34,3.34,0,0,0-3.34,3.34v4.71a3.33,3.33,0,0,0,3.34,3.34h1.35v2.68Z"/><line class="cls-5" x1="21.92" y1="19.51" x2="40.94" y2="19.51"/><path class="cls-2" d="M27.69,46.23a8,8,0,0,0-7.8-4.31,8.29,8.29,0,0,0-7.32,4.88,2.53,2.53,0,0,0-.31,1h0s-.25,1.26.93,1.26H27.35a.92.92,0,0,0,.95-1.14A3.64,3.64,0,0,0,27.69,46.23Z"/><path class="cls-3" d="M48.2,46.23a8,8,0,0,0-7.8-4.31,8.29,8.29,0,0,0-7.32,4.88,2.53,2.53,0,0,0-.31,1h0s-.25,1.26.93,1.26H47.86a.92.92,0,0,0,1-1.14A3.64,3.64,0,0,0,48.2,46.23Z"/></g></g></svg>