<svg xmlns="http://www.w3.org/2000/svg" xmlns:xlink="http://www.w3.org/1999/xlink" viewBox="0 0 61 61"><defs><style>.cls-1{fill:url(#linear-gradient);}.cls-2{fill:#fff;}.cls-3{fill:#0073bb;}</style><linearGradient id="linear-gradient" x1="30.49" y1="31.11" x2="29.78" y2="92.1" gradientUnits="userSpaceOnUse"><stop offset="0" stop-color="#0073bb"/><stop offset="0.18" stop-color="#026eb5"/><stop offset="0.42" stop-color="#0861a3"/><stop offset="0.7" stop-color="#124c86"/><stop offset="1" stop-color="#1f2f5e"/></linearGradient></defs><g id="Layer_2" data-name="Layer 2"><g id="Layer_1-2" data-name="Layer 1"><rect class="cls-1" width="61" height="61" rx="15.82"/><path class="cls-2" d="M47.37,16.43H26.29a2.71,2.71,0,0,0-2.7,2.71V21.8H24a10.48,10.48,0,0,1,5.13,1.35,1.91,1.91,0,0,1,.68-.13,1.81,1.81,0,0,1,1.81,1.81,2,2,0,0,1,0,.24,6,6,0,0,1,.43.45,10.51,10.51,0,0,1,2.42,7.91H45.24a2.6,2.6,0,0,1,1.5.48l2.62,2.36a.42.42,0,0,0,.71-.31V19.14A2.71,2.71,0,0,0,47.37,16.43ZM36.5,26.63a1.81,1.81,0,1,1,1.8-1.81A1.81,1.81,0,0,1,36.5,26.63Zm6.71,0A1.81,1.81,0,1,1,45,24.82,1.81,1.81,0,0,1,43.21,26.63Z"/><path class="cls-3" d="M31.56,25.06a2,2,0,0,0,0-.24A1.81,1.81,0,0,0,29.78,23a1.91,1.91,0,0,0-.68.13A10.34,10.34,0,0,1,31.56,25.06Z"/><path class="cls-3" d="M36.5,23a1.81,1.81,0,1,0,1.8,1.81A1.81,1.81,0,0,0,36.5,23Z"/><path class="cls-3" d="M43.21,23A1.81,1.81,0,1,0,45,24.82,1.81,1.81,0,0,0,43.21,23Z"/><path class="cls-2" d="M25.41,40.71a8.53,8.53,0,1,1,7-7A8.54,8.54,0,0,1,25.41,40.71Zm-.09-15.2A6.93,6.93,0,1,0,30.76,31,6.94,6.94,0,0,0,25.32,25.51Z"/><path class="cls-2" d="M11.16,45.12h0a.8.8,0,0,1,0-1.13l6.78-6.79,1.13,1.13-6.78,6.79A.8.8,0,0,1,11.16,45.12Z"/></g></g></svg>